<svg width="108" height="37" viewBox="0 0 108 37" fill="none" xmlns="http://www.w3.org/2000/svg">
<path d="M1.824 29.04C2.24 29.328 2.976 29.68 4.032 30.096C5.088 30.48 6.336 30.672 7.776 30.672C9.024 30.672 10.048 30.464 10.848 30.048C11.648 29.6 12.256 28.944 12.672 28.08C13.12 27.216 13.408 26.096 13.536 24.72C13.696 23.344 13.776 21.696 13.776 19.776V1.92002H20.4V19.248C20.4 21.808 20.256 24.144 19.968 26.256C19.68 28.368 19.12 30.192 18.288 31.728C17.456 33.264 16.192 34.448 14.496 35.28C12.832 36.112 10.608 36.528 7.824 36.528C6.288 36.528 4.912 36.352 3.696 36C2.48 35.648 1.36 35.12 0.335999 34.416L1.824 29.04Z" fill="#141414"/>
<path d="M37.7002 36.48C35.6522 36.48 33.8122 36.144 32.1802 35.472C30.5482 34.768 29.1562 33.808 28.0042 32.592C26.8842 31.376 26.0202 29.984 25.4122 28.416C24.8042 26.848 24.5002 25.2 24.5002 23.472C24.5002 21.712 24.8042 20.048 25.4122 18.48C26.0202 16.912 26.8842 15.52 28.0042 14.304C29.1562 13.088 30.5482 12.144 32.1802 11.472C33.8122 10.768 35.6522 10.416 37.7002 10.416C39.7482 10.416 41.5723 10.768 43.1722 11.472C44.8042 12.144 46.1962 13.088 47.3482 14.304C48.5002 15.52 49.3643 16.912 49.9403 18.48C50.5482 20.048 50.8522 21.712 50.8522 23.472C50.8522 25.2 50.5482 26.848 49.9403 28.416C49.3643 29.984 48.5002 31.376 47.3482 32.592C46.2282 33.808 44.8522 34.768 43.2202 35.472C41.5882 36.144 39.7482 36.48 37.7002 36.48ZM31.1242 23.472C31.1242 24.944 31.4122 26.256 31.9882 27.408C32.5642 28.528 33.3482 29.408 34.3402 30.048C35.3322 30.688 36.4522 31.008 37.7002 31.008C38.9162 31.008 40.0202 30.688 41.0122 30.048C42.0042 29.376 42.7882 28.48 43.3643 27.36C43.9723 26.208 44.2762 24.896 44.2762 23.424C44.2762 21.984 43.9723 20.688 43.3643 19.536C42.7882 18.384 42.0042 17.488 41.0122 16.848C40.0202 16.208 38.9162 15.888 37.7002 15.888C36.4522 15.888 35.3322 16.224 34.3402 16.896C33.3482 17.536 32.5642 18.432 31.9882 19.584C31.4122 20.704 31.1242 22 31.1242 23.472Z" fill="#141414"/>
<path d="M53.4656 28.56C53.4656 26.928 53.9136 25.504 54.8096 24.288C55.7376 23.04 57.0176 22.08 58.6496 21.408C60.2816 20.736 62.1536 20.4 64.2656 20.4C65.3216 20.4 66.3936 20.48 67.4816 20.64C68.5696 20.8 69.5136 21.056 70.3136 21.408V20.064C70.3136 18.464 69.8336 17.232 68.8736 16.368C67.9456 15.504 66.5536 15.072 64.6976 15.072C63.3216 15.072 62.0096 15.312 60.7616 15.792C59.5136 16.272 58.2016 16.976 56.8256 17.904L54.7616 13.68C56.4256 12.592 58.1216 11.776 59.8496 11.232C61.6096 10.688 63.4496 10.416 65.3696 10.416C68.9536 10.416 71.7376 11.312 73.7216 13.104C75.7376 14.896 76.7456 17.456 76.7456 20.784V28.8C76.7456 29.472 76.8576 29.952 77.0816 30.24C77.3376 30.528 77.7376 30.704 78.2816 30.768V36C77.7056 36.096 77.1776 36.176 76.6976 36.24C76.2496 36.304 75.8656 36.336 75.5456 36.336C74.2656 36.336 73.2896 36.048 72.6176 35.472C71.9776 34.896 71.5776 34.192 71.4176 33.36L71.2736 32.064C70.1856 33.472 68.8256 34.56 67.1936 35.328C65.5616 36.096 63.8976 36.48 62.2016 36.48C60.5376 36.48 59.0336 36.144 57.6896 35.472C56.3776 34.768 55.3376 33.824 54.5696 32.64C53.8336 31.424 53.4656 30.064 53.4656 28.56ZM69.1136 29.856C69.4656 29.472 69.7536 29.088 69.9776 28.704C70.2016 28.32 70.3136 27.968 70.3136 27.648V25.104C69.5456 24.784 68.7136 24.544 67.8176 24.384C66.9216 24.192 66.0736 24.096 65.2736 24.096C63.6096 24.096 62.2336 24.464 61.1456 25.2C60.0896 25.904 59.5616 26.848 59.5616 28.032C59.5616 28.672 59.7376 29.28 60.0896 29.856C60.4416 30.432 60.9536 30.896 61.6256 31.248C62.2976 31.6 63.0976 31.776 64.0256 31.776C64.9856 31.776 65.9296 31.6 66.8576 31.248C67.7856 30.864 68.5376 30.4 69.1136 29.856ZM68.4416 7.10402C67.4816 7.10402 66.6496 6.92802 65.9456 6.57602C65.2736 6.19202 64.6496 5.82402 64.0736 5.47202C63.4976 5.12002 62.8576 4.94402 62.1536 4.94402C61.4496 4.94402 60.9216 5.13602 60.5696 5.52002C60.2496 5.87202 60.0416 6.24002 59.9456 6.62402C59.8816 7.00802 59.8496 7.21602 59.8496 7.24802H56.2976C56.2976 6.96002 56.3936 6.48002 56.5856 5.80802C56.7776 5.13602 57.0816 4.44802 57.4976 3.74402C57.9456 3.00802 58.5216 2.38402 59.2256 1.87202C59.9616 1.36002 60.8576 1.10402 61.9136 1.10402C62.9056 1.10402 63.7216 1.29602 64.3616 1.68002C65.0016 2.06402 65.6096 2.44802 66.1856 2.83202C66.7936 3.18402 67.4816 3.36002 68.2496 3.36002C69.0176 3.36002 69.5776 3.16802 69.9296 2.78402C70.2816 2.40002 70.5056 2.01602 70.6016 1.63202C70.7296 1.24802 70.7936 1.02402 70.7936 0.960022H74.3456C74.3456 1.18402 74.2496 1.61602 74.0576 2.25602C73.8656 2.89602 73.5296 3.60002 73.0496 4.36802C72.6016 5.10402 71.9936 5.74402 71.2256 6.28802C70.4896 6.83202 69.5616 7.10402 68.4416 7.10402Z" fill="#141414"/>
<path d="M94.3721 36.48C92.3241 36.48 90.4841 36.144 88.8521 35.472C87.2201 34.768 85.8281 33.808 84.6761 32.592C83.5561 31.376 82.6921 29.984 82.0841 28.416C81.4761 26.848 81.1721 25.2 81.1721 23.472C81.1721 21.712 81.4761 20.048 82.0841 18.48C82.6921 16.912 83.5561 15.52 84.6761 14.304C85.8281 13.088 87.2201 12.144 88.8521 11.472C90.4841 10.768 92.3241 10.416 94.3721 10.416C96.4201 10.416 98.2441 10.768 99.8441 11.472C101.476 12.144 102.868 13.088 104.02 14.304C105.172 15.52 106.036 16.912 106.612 18.48C107.22 20.048 107.524 21.712 107.524 23.472C107.524 25.2 107.22 26.848 106.612 28.416C106.036 29.984 105.172 31.376 104.02 32.592C102.9 33.808 101.524 34.768 99.8921 35.472C98.2601 36.144 96.4201 36.48 94.3721 36.48ZM87.7961 23.472C87.7961 24.944 88.0841 26.256 88.6601 27.408C89.2361 28.528 90.0201 29.408 91.0121 30.048C92.0041 30.688 93.1241 31.008 94.3721 31.008C95.5881 31.008 96.6921 30.688 97.6841 30.048C98.6761 29.376 99.4601 28.48 100.036 27.36C100.644 26.208 100.948 24.896 100.948 23.424C100.948 21.984 100.644 20.688 100.036 19.536C99.4601 18.384 98.6761 17.488 97.6841 16.848C96.6921 16.208 95.5881 15.888 94.3721 15.888C93.1241 15.888 92.0041 16.224 91.0121 16.896C90.0201 17.536 89.2361 18.432 88.6601 19.584C88.0841 20.704 87.7961 22 87.7961 23.472Z" fill="#141414"/>
</svg>
